<svg t="1661308686606" class="icon" viewBox="0 0 1024 1024" version="1.1" xmlns="http://www.w3.org/2000/svg" p-id="24150" width="80" height="80"><path d="M760.108961 424.648029c12.111828-22.755556 16.883154-47.713262 14.681003-73.405018-0.367025-6.239427-1.4681-12.478853-2.20215-18.351255-0.367025-5.505376-1.101075-20.18638-4.037276-24.957706-5.505376-9.175627-18.351254 7.707527-20.553405 15.782079-2.202151 6.973477-7.340502 36.335484-9.175628 49.915412 0.367025-12.111828-3.670251-37.069534-3.670251-43.675985 0-8.074552 0-15.048029 1.101076-26.058782 0.73405-5.505376-1.101075-9.909677-6.606452-10.276702-12.845878-0.73405-16.516129 16.883154-19.45233 25.691756-4.404301 13.946953-0.367025 31.931183-4.404301 48.447312-4.771326-12.845878-1.4681-58.724014-20.553405-46.612187-7.707527 5.138351-9.175627 17.984229-9.175627 26.058782 0 12.478853 2.569176 20.18638 5.138351 34.133333-11.377778-17.984229-11.010753-42.941935-26.425806-30.096057-6.973477 5.505376-4.404301 18.351254-3.303226 25.691756 1.101075 9.542652 4.404301 18.351254 7.340502 27.159857-6.239427-12.111828-12.845878-23.856631-21.65448-19.819355-12.111828 6.239427-5.872401 36.335484-2.569176 52.117563-2.202151-6.973477-15.048029-23.122581-20.18638-19.45233-19.819355 13.579928-5.138351 49.181362-6.239427 55.053763-3.303226-2.936201-3.303226-14.313978-12.845878-11.010752-12.478853 4.404301-24.957706 39.63871-31.564157 53.218638-5.505376 10.643728-11.010753 22.021505-15.415054 33.399283-17.984229-22.021505-40.005735-50.282437-58.724014-66.064516-41.10681-34.500358-86.617921-62.76129-108.272402-84.415771-18.351254-18.351254-30.463082-44.410036-37.436559-69.367742-1.101075-4.404301-2.569176-25.691756-6.239427-26.425806-16.883154-3.670251-0.367025 45.878136 4.404302 56.888888-4.037276-8.808602-35.601434-69.367742-40.37276-67.165591-10.643728 4.771326 12.845878 45.878136 16.883154 51.383513-4.404301-3.670251-9.175627-12.111828-12.845878-16.883155-4.404301-5.872401-19.45233-31.197133-23.489606-30.830107-12.845878 1.101075 13.212903 41.10681 16.149104 44.777061-4.037276-2.569176-21.65448-23.122581-24.590681-18.351255-9.175627 13.579928 11.377778 36.335484 19.085305 44.043011-4.771326-1.835125-22.38853-20.92043-23.489606-8.441577-1.101075 13.212903 11.744803 22.755556 23.12258 26.058781-5.505376-1.835125-13.579928-4.037276-19.452329-4.037276-7.707527 0.367025-3.303226 12.845878 1.101075 17.98423 6.606452 8.074552 22.021505 18.71828 31.197133 20.92043-10.276703 0.367025-27.893907-13.212903-31.564158-3.303226-3.303226 9.175627 24.590681 27.893907 32.298208 28.627957-11.744803 0-28.260932-5.138351-28.260932 5.138351 0 9.542652 11.377778 16.149104 22.38853 19.819355-4.771326-0.367025-22.755556 2.202151-22.38853 6.239427 0.73405 13.946953 29.362007 21.287455 42.941935 22.021505-19.45233 81.846595 94.325448 138.735484 94.692473 138.368459-56.521864 36.335484-49.548387 40.37276-79.644444 49.181362-30.096057 8.808602-93.224373 9.542652-83.68172 27.526882 6.606452 12.845878 9.542652 23.122581 44.04301 23.12258s85.149821-15.048029 121.85233-23.856631c36.702509-8.808602 82.21362-6.606452 112.309677-6.606451 30.096057 0 88.820072-26.058781 106.070251-41.10681 17.250179-15.048029 28.260932-12.845878 45.511111-26.058782 17.250179-12.845878 28.994982-19.819355 28.994983-19.819354s9.175627-0.73405 15.415053 4.037276c6.606452 5.138351 13.946953 12.845878 13.946954 12.845878s2.936201-12.478853-2.202151-27.526882c2.936201-5.872401 2.202151-34.500358-17.250179-41.10681-19.45233-6.606452-32.298208-4.404301-47.713262 6.606452-5.872401 4.037276-19.45233 6.239427-34.133333 6.973476-1.101075-16.149104 5.872401-20.92043 24.590681-43.675985 24.590681-29.362007 75.974194-72.303943 96.527599-110.474552z m-39.271685 157.086738c3.303226 0 6.239427 2.936201 6.239427 6.239427 0 3.303226-2.936201 6.239427-6.239427 6.239426s-6.239427-2.936201-6.239427-6.239426c0-3.303226 2.936201-6.239427 6.239427-6.239427z" fill="#1296db" p-id="24151"></path></svg>